<svg xmlns="http://www.w3.org/2000/svg" width="256" height="128" fill="none">
  <path fill="#333" d="M0 0h256v128H0z"/>
  <path fill="#fff" d="M42.1 92.8c-1.6-2.3-5-2-6.6 0a5.8 5.8 0 000 7.5c1.9 2 5.3 2 7.1-.3l1.2 1c-2.3 3-7 2.8-9.5.3a7.1 7.1 0 010-9.6c2.3-2.4 7-2.8 9.1.1l-1.3 1zM60.3 90.1h1.5v11.4h5.8v1.4h-7.3V90zM89.6 103.2c-3.8 0-6.7-3-6.7-6.7 0-3.8 3-6.7 6.7-6.7s6.7 3 6.7 6.7c0 3.8-3 6.7-6.7 6.7zm5-6.7c0-6.8-10-6.8-10 0s10 6.8 10 0zM121.6 91.5h-4.2V103H116V91.5h-4.2v-1.4h10v1.4zM137.8 90.1h1.5v5.4h6.8v-5.4h1.6V103H146v-6h-6.8v6h-1.5V90zM165.2 90.1h1.5V103h-1.5V90zM184.3 90.1h1.9l7.4 10.6V90.1h1.5V103h-1.9l-7.4-10.6v10.6h-1.5V90zM223.5 102c-3.7 2-9.2 1.6-11-2.8-.4-.8-.5-1.7-.5-2.7 0-3.8 3-6.7 6.8-6.7 1.7 0 3.3.5 4.5 1.7l-1.1 1.2c-.9-1-2.2-1.5-3.5-1.5-3 0-5.1 2.4-5.1 5.3 0 .8.1 1.5.4 2.1 1.3 3.2 5.1 4 8 2.4v-3.9h-3v-1.4h4.5v6.3zM55.7 47.4v28.4h-6.3V53.6H38.7v-6.2h17z"/>
  <path fill="#fff" d="M42.9 73.2V67c-6.5 3.5-13.5 4.3-19.7-2-7-7.2-7.2-20.8-.4-28.2 6.8-7.5 21.3-7.5 28.5-.6l2.6-5c-9.1-9.4-27.1-8-36 1a28 28 0 00-.3 36.8A21 21 0 0043 73.2zM92.9 25.2h-6L65.7 75.8H73l19.9-50.6zM96.2 34l-3.4 8.2 5.9 14.6h-12l-2.3 5.7h16.7l5 13.3h7.6L96.2 33.9zM118.5 31v-6.1H156v6h-37.5zM134 37h6.5v38.8H134V37.1zM169 64.3c3.9 5.4 14.6 7 20 3.1 3.3-2 5.4-7.4 1.6-10.2-5-3.8-11.9-3.9-17.3-7a12.9 12.9 0 01-2.5-20.6c7.3-6.6 19.8-5.3 25.6 0l-2.6 5.7c-3.5-5-13-5.8-17.4-1.6-2.6 2.4-3.1 7-.3 9.5 4.9 4 11.8 3.9 17.3 6.8 8.7 4.2 8.7 16 1.4 21.6-8 6.3-22.4 5.4-28.7-1.7l2.8-5.6zM214 64.3c3.9 5.4 14.6 7 20 3.1 3.3-2 5.4-7.4 1.6-10.2-5-3.8-11.9-3.9-17.3-7a12.9 12.9 0 01-2.5-20.6c7.3-6.6 19.8-5.3 25.6 0l-2.6 5.7c-3.5-5-13-5.8-17.4-1.6-2.6 2.4-3.1 7-.3 9.5 4.9 4 11.8 3.9 17.3 6.8 8.7 4.2 8.7 16 1.4 21.6-8 6.3-22.4 5.4-28.7-1.7l2.8-5.6z"/>
</svg>
